<svg xmlns="http://www.w3.org/2000/svg" height="114" width="336" style="width: 336px; height: 114px; position: absolute; top: 50%; left: 50%; transform: translate(-50%, -50%) scale(1); z-index: 0; cursor: pointer; overflow: visible;">
	<defs id="SvgjsDefs1001">
	</defs>
	<g id="SvgjsG1007" featurekey="symbolFeature-0" transform="matrix(1.2155632756551626,0,0,1.2155632756551626,-5.584294623298915,10.815440673219065)" fill="#fde402">
		<path xmlns="http://www.w3.org/2000/svg" d="M19.968,43.616c-0.188-3.375-2.438-3.938-2.438-3.938c0.188-3.188,0.938-3.938,0.938-3.938l19.688,6.938l20.344-6.938  v10.312l-0.562,1.125c-1.781,2.438-6.844,4.219-9.188,4.688s-7.125,1.219-16.125,0.75s-14.156-4.969-14.156-4.969  C20.437,45.866,19.968,43.616,19.968,43.616z M38.53,26.46l-17.531,6.75l17.016,5.812l31.641-10.594c0,0,1.969-1.688-0.469-2.438  S38.718,15.866,38.718,15.866s-0.656-0.188-1.312,0s-30,10.094-30,10.094s-1.625,0.385-1.438,1.442s0.75,1.058,0.75,1.058  l7.25,2.375c0,0-3.312,3.688-2.812,9.125c0,0-2.188,0.874-2.062,3.188c0,0-0.062,2.126,1.938,2.75c0,0-0.125,7.001-6.438,12.313  l5.438,2.687c0,0,4.188-1.125,4.625-6.562c0,0,0-6.125-0.562-8.812c0,0,1.5-1,1.5-2.562c0,0-0.062-2.375-1.812-3  c0,0-0.375-6.812,4.562-9l18.5-7.5c0,0,1.875-0.562,2.562,0.5C39.405,23.96,40.28,25.71,38.53,26.46">
		</path>
	</g>
	<g id="SvgjsG1008" featurekey="textGroupContainer" transform="matrix(1,0,0,1,335,0)" fill="#ffffff">
		<rect xmlns="http://www.w3.org/2000/svg" y="0" height="1" width="1" opacity="0">
		</rect>
		<rect xmlns="http://www.w3.org/2000/svg" y="0" x="-235" width="3" height="114">
		</rect>
	</g>
	<g id="SvgjsG1009" featurekey="vMvB0T-0" transform="matrix(4.00160037148646,0,0,4.00160037148646,115.11884308627764,4.910358207528983)" fill="#ffffff">
		<path d="M8.66 11.78 l0 -0.24 q0 -2.96 -2.2 -2.96 q-1.26 0 -1.82 1.15 t-0.56 3.39 q0 2.22 0.7 3.3 t2.04 1.08 q0.7 0 1.55 -0.33 t1.85 -1.05 q0.5 0.34 0.93 0.93 t0.53 1.13 q-0.46 0.44 -1.07 0.83 t-1.32 0.67 t-1.48 0.45 t-1.55 0.17 q-1.54 0 -2.6 -0.59 t-1.71 -1.57 t-0.94 -2.26 t-0.29 -2.66 q0 -1.8 0.45 -3.15 t1.22 -2.25 t1.81 -1.35 t2.22 -0.45 q1.2 0 2.18 0.32 t1.67 0.88 t1.06 1.32 t0.37 1.64 q0 1.78 -1.82 1.78 q-0.54 0 -1.22 -0.18 z M12.58 18.82 q0.06 -0.66 0.41 -1.32 t0.83 -1.08 q2.14 1.3 4.06 1.3 q0.84 0 1.23 -0.38 t0.39 -0.94 q0 -0.94 -1.26 -1.48 l-2.36 -1 q-1.38 -0.62 -2.12 -1.49 t-0.74 -2.21 q0 -0.92 0.37 -1.68 t1.04 -1.32 t1.59 -0.87 t2.04 -0.31 q2.24 0 4.52 1.14 q-0.1 1.54 -1.08 2.4 q-2.04 -0.98 -3.6 -0.98 q-0.8 0 -1.2 0.36 t-0.4 0.82 q0 0.78 1.18 1.26 l2.4 1.02 q1.52 0.64 2.27 1.64 t0.75 2.32 q0 0.94 -0.34 1.72 t-1.01 1.35 t-1.67 0.89 t-2.34 0.32 q-2.6 0 -4.96 -1.48 z M24.520000000000003 19.96 l1.06 -13.6 q0.88 -0.16 2.08 -0.16 t2.1 0.16 l1.18 4.9 q0.7 3.32 0.74 3.62 l0.14 0 q0.08 -0.5 0.74 -3.62 l1.2 -4.9 q0.88 -0.16 2.08 -0.16 t2.1 0.16 l1.06 13.6 q-0.62 0.16 -1.53 0.16 t-1.49 -0.1 l-0.32 -5.56 q-0.14 -3.32 -0.16 -4.62 l-0.12 0 l-1.98 8.14 q-0.72 0.12 -1.65 0.12 t-1.65 -0.12 l-1.96 -8.14 l-0.14 0 q0 1.78 -0.16 4.62 l-0.3 5.56 q-0.58 0.1 -1.49 0.1 t-1.53 -0.16 z M40.379999999999995 18.82 q0.06 -0.66 0.41 -1.32 t0.83 -1.08 q2.14 1.3 4.06 1.3 q0.84 0 1.23 -0.38 t0.39 -0.94 q0 -0.94 -1.26 -1.48 l-2.36 -1 q-1.38 -0.62 -2.12 -1.49 t-0.74 -2.21 q0 -0.92 0.37 -1.68 t1.04 -1.32 t1.59 -0.87 t2.04 -0.31 q2.24 0 4.52 1.14 q-0.1 1.54 -1.08 2.4 q-2.04 -0.98 -3.6 -0.98 q-0.8 0 -1.2 0.36 t-0.4 0.82 q0 0.78 1.18 1.26 l2.4 1.02 q1.52 0.64 2.27 1.64 t0.75 2.32 q0 0.94 -0.34 1.72 t-1.01 1.35 t-1.67 0.89 t-2.34 0.32 q-2.6 0 -4.96 -1.48 z">
		</path>
	</g>
</svg>
